# xmcd
#
# Track frame offsets: 
#        150
#        12596
#        26837
#        43179
#        57330
#        72163
#        88108
#
# Disc length: 1422 seconds
#
# Revision: 1
# Processed by: cddbd v1.5.2PL0 Copyright (c) Steve Scherf et al.
# Submitted via: ExactAudioCopy v0.99pb5
#
DISCID=5f058c07
DTITLE=Tyler Read - The Light, The Glass, The Transparency
DYEAR=1900
DGENRE=Emo
TTITLE0=New Year
TTITLE1=The Light and The Glass
TTITLE2=The Ending Is All That Matters
TTITLE3=Blink
TTITLE4=Heaven Is Holding On
TTITLE5=Memoirs
TTITLE6=Loose Lips Sink Ships (The Saltwater Redemption)
EXTD=
EXTT0=
EXTT1=
EXTT2=
EXTT3=
EXTT4=
EXTT5=
EXTT6=
PLAYORDER=
